Coordinates
version=1
nRows=29
nColumns=24
inDegrees=yes

Units are S.I. units (second, meters, Newtons, ...)
Angles are in degrees.

endheader
time	pelvis_tilt	pelvis_list	pelvis_rotation	pelvis_tx	pelvis_ty	pelvis_tz	hip_flexion_r	hip_adduction_r	hip_rotation_r	knee_angle_r	ankle_angle_r	subtalar_angle_r	mtp_angle_r	hip_flexion_l	hip_adduction_l	hip_rotation_l	knee_angle_l	ankle_angle_l	subtalar_angle_l	mtp_angle_l	lumbar_extension	lumbar_bending	lumbar_rotation
      4.43500000	    -18.39666801	     -6.76483885	      0.05063004	     -1.43793919	     -0.02914738	     -0.34790359	     26.49424050	     10.32663473	     -0.27725242	    -26.74970274	     10.72874298	    -17.13192438	     -7.34110000	     33.52941970	     -8.64862190	     -4.42010042	    -62.80616598	     -5.51708937	    -11.55156969	     17.47175180	     23.71111383	      5.41070585	    -13.01396940
      4.44000000	    -18.41685836	     -6.41968627	     -0.10010955	     -1.43138135	     -0.02763124	     -0.34776480	     25.57136846	     10.06514124	      0.13475171	    -25.94963647	     10.75370585	    -16.88486539	     -7.75046781	     34.19387220	     -8.40646999	     -4.88464978	    -62.11813226	     -4.96280191	    -11.73110394	     17.11676099	     23.69709620	      5.11005172	    -12.64263408
      4.44500000	    -18.46851556	     -6.05738418	     -0.21910816	     -1.42487052	     -0.02618165	     -0.34766807	     24.70341300	      9.75331269	      0.46013309	    -25.16277429	     10.74464394	    -16.65139344	     -8.10722089	     34.87603514	     -8.12912913	     -5.31309506	    -61.35299191	     -4.44400488	    -11.84122464	     16.80096068	     23.71295968	      4.77672248	    -12.30034299
      4.45000000	    -18.53891461	     -5.71032144	     -0.31519846	     -1.41838260	     -0.02480145	     -0.34761983	     23.87154791	      9.42872037	      0.69811002	    -24.38244599	     10.67572494	    -16.42578330	     -8.36441158	     35.56803378	     -7.86150346	     -5.71579396	    -60.52418677	     -3.97626282	    -11.90896111	     16.57188844	     23.75007698	      4.44742341	    -11.98281049
      4.45500000	    -18.56152586	     -5.38686692	     -0.45656105	     -1.41192049	     -0.02347641	     -0.34754107	     22.98720872	      9.14008369	      1.00600143	    -23.60104423	     10.66321125	    -16.11003271	     -8.66501918	     36.18584131	     -7.67048007	     -6.19448945	    -59.65330024	     -3.52751666	    -11.97942018	     16.27299244	     23.72578020	      4.16598353	    -11.64271671
      4.46000000	    -18.56359347	     -5.07984506	     -0.54231635	     -1.40546884	     -0.02216930	     -0.34753895	     22.09440784	      8.83557171	      1.20905323	    -22.83238981	     10.61124263	    -15.80256462	     -9.15687309	     36.77289588	     -7.46394072	     -6.61517303	    -58.72960355	     -3.10402413	    -11.94239227	     15.80780089	     23.68222558	      3.87502314	    -11.36417052
      4.46500000	    -18.68994020	     -4.78499271	     -0.64496153	     -1.39909404	     -0.02109107	     -0.34751151	     21.36825354	      8.53299493	      1.36134782	    -22.08883117	     10.53436064	    -15.50482456	     -9.22122428	     37.48736121	     -7.28900551	     -7.02392419	    -57.74977116	     -2.74162731	    -11.85342092	     15.75168456	     23.76441788	      3.59539054	    -11.07972730
      4.47000000	    -18.70742293	     -4.47179941	     -0.83117162	     -1.39273002	     -0.01992177	     -0.34746184	     20.54927439	      8.22583189	      1.54610336	    -21.38827627	     10.42226367	    -15.11828967	     -9.28541807	     38.01629401	     -7.15629817	     -7.54405046	    -56.67229388	     -2.37944721	    -11.80074023	     15.64451947	     23.71359210	      3.34796955	    -10.68447367
      4.47500000	    -18.77592722	     -4.21448018	     -0.92643192	     -1.38638711	     -0.01891057	     -0.34749529	     19.78107737	      7.94074261	      1.65197678	    -20.66159520	     10.31087211	    -14.78750498	     -9.31565327	     38.62695188	     -7.02904145	     -7.95046278	    -55.58140004	     -2.08595893	    -11.63697277	     15.58111121	     23.72418296	      3.10561169	    -10.43413812
      4.48000000	    -18.75219408	     -3.95209116	     -1.11636743	     -1.38007259	     -0.01785217	     -0.34748164	     18.95310517	      7.66436259	      1.74388487	    -19.99712770	     10.17926924	    -14.35097547	     -9.27977960	     39.07292666	     -6.96661855	     -8.47355687	    -54.40344004	     -1.74510846	    -11.47209575	     15.50028303	     23.62140140	      2.90904139	    -10.05011733
      4.48500000	    -18.81230473	     -3.72712901	     -1.22951541	     -1.37379299	     -0.01694939	     -0.34756609	     18.22178525	      7.39764726	      1.78787571	    -19.32951105	     10.01207257	    -13.96837806	     -9.22609790	     39.62338686	     -6.88464328	     -8.87673185	    -53.19671002	     -1.48459473	    -11.19294078	     15.46492216	     23.61077106	      2.71225790	     -9.80978197
      4.49000000	    -18.75885913	     -3.50947517	     -1.42630624	     -1.36753054	     -0.01600613	     -0.34759397	     17.39649704	      7.14771059	      1.80497567	    -18.70126509	      9.85889249	    -13.48091762	     -9.01768437	     39.99373988	     -6.88148230	     -9.40824136	    -51.91714538	     -1.17447601	    -10.93426253	     15.41572524	     23.46481857	      2.55997411	     -9.45066235
      4.49500000	    -18.85039445	     -3.33113652	     -1.52482347	     -1.36128272	     -0.01529146	     -0.34772401	     16.73641414	      6.91524126	      1.77390161	    -18.08601537	      9.66657674	    -13.11069445	     -8.91190122	     40.53282945	     -6.83968720	     -9.78719627	    -50.60392413	     -0.93063157	    -10.55292229	     15.41719319	     23.48442930	      2.39616867	     -9.25364589
      4.50000000	    -18.74675306	     -3.13442186	     -1.75185397	     -1.35507590	     -0.01442291	     -0.34778928	     15.89148853	      6.67210351	      1.72830442	    -17.49244516	      9.49187018	    -12.54671269	     -8.50827606	     40.79362329	     -6.88469385	    -10.36290535	    -49.22274765	     -0.66177085	    -10.18192649	     15.40612397	     23.26631648	      2.28686505	     -8.85453786
      4.50500000	    -18.75831444	     -2.97195619	     -1.90623502	     -1.34888197	     -0.01376245	     -0.34789544	     15.17406480	      6.45314887	      1.65669420	    -16.90298011	      9.29755846	    -12.08268175	     -8.17403126	     41.18322419	     -6.90891347	    -10.81861188	    -47.81357962	     -0.44142149	     -9.67428013	     15.42916431	     23.17896430	      2.16278265	     -8.55914500
      4.51000000	    -18.83603887	     -2.81821139	     -2.01639196	     -1.34269201	     -0.01323867	     -0.34807331	     14.55196407	      6.23613660	      1.57006036	    -16.36319904	      9.07027084	    -11.69447542	     -7.98947840	     41.62005541	     -6.90769062	    -11.24893430	    -46.34194501	     -0.24760561	     -9.14334097	     15.45712598	     23.16618900	      2.02505813	     -8.39100474
      4.51500000	    -18.73730045	     -2.66968580	     -2.23718987	     -1.33653200	     -0.01261516	     -0.34817951	     13.74613604	      6.02954730	      1.49289687	    -15.81612468	      8.90565878	    -11.11584107	     -7.55668642	     41.81821061	     -6.99844701	    -11.82315037	    -44.83695487	     -0.04191460	     -8.57931636	     15.49946918	     22.94355484	      1.95107241	     -7.99688885
      4.52000000	    -18.70342563	     -2.51723478	     -2.39917776	     -1.33034820	     -0.01212872	     -0.34833747	     13.03180805	      5.81080707	      1.36718624	    -15.30878799	      8.69031107	    -10.66284572	     -7.13797611	     42.06008347	     -7.04316509	    -12.37214383	    -43.27132151	      0.14074343	     -7.96679231	     15.54848718	     22.80023363	      1.83650383	     -7.76347758
      4.52500000	    -18.62600902	     -2.33969603	     -2.51965344	     -1.32414112	     -0.01165205	     -0.34857693	     12.26386682	      5.54805892	      1.23530633	    -14.77823259	      8.46343963	    -10.25908450	     -6.47246769	     42.22649708	     -7.01810167	    -12.88701034	    -41.65256856	      0.21774845	     -7.36783880	     15.59897894	     22.61147757	      1.67623407	     -7.52103189
      4.53000000	    -18.69294492	     -2.25048943	     -2.69686175	     -1.31802520	     -0.01149608	     -0.34871441	     11.69991044	      5.40963984	      1.14168995	    -14.35518811	      8.28867277	     -9.81029117	     -6.28027176	     42.56435666	     -7.13769705	    -13.41511164	    -40.08459302	      0.38040321	     -6.53772529	     15.72652335	     22.56236955	      1.62405189	     -7.27302000
      4.53500000	    -18.67567402	     -2.10746325	     -2.87075951	     -1.31186412	     -0.01130281	     -0.34888217	     11.05809410	      5.20517792	      1.05129951	    -13.95535974	      8.14155780	     -9.35373317	     -6.07413033	     42.76099001	     -7.19427612	    -13.99577877	    -38.45349756	      0.48709907	     -5.73316249	     15.86218337	     22.42659393	      1.51755667	     -7.00985824
      4.54000000	    -18.64326357	     -1.96237221	     -3.03933925	     -1.30568991	     -0.01118571	     -0.34907374	     10.42149557	      4.99577570	      0.94819910	    -13.59570792	      8.00621548	     -8.91847028	     -5.86770123	     42.91853363	     -7.23794263	    -14.58706317	    -36.80297644	      0.57009955	     -4.90779069	     16.03301811	     22.27427787	      1.40490986	     -6.76368818
      4.54500000	    -18.61033789	     -1.81465175	     -3.20664102	     -1.29951155	     -0.01116526	     -0.34926346	      9.80890974	      4.78449606	      0.84253215	    -13.28115885	      7.88576980	     -8.50671117	     -5.66728901	     43.05661889	     -7.27252616	    -15.18471312	    -35.14475352	      0.63141833	     -4.06411666	     16.24232180	     22.12169380	      1.28451622	     -6.52629998
      4.55000000	    -18.56230369	     -1.65479360	     -3.38190761	     -1.29330225	     -0.01122116	     -0.34946975	      9.21063851	      4.55996226	      0.72096378	    -13.02376998	      7.77996401	     -8.12471467	     -5.45607782	     43.14888241	     -7.28734602	    -15.79062699	    -33.47047178	      0.69009123	     -3.22850712	     16.50398404	     21.95600630	      1.15591842	     -6.27644693
      4.55500000	    -18.51529102	     -1.49431744	     -3.55789497	     -1.28709281	     -0.01137500	     -0.34967790	      8.63509727	      4.33407056	      0.62427057	    -12.80678173	      7.69859180	     -7.75042805	     -5.24200539	     43.22993782	     -7.29361617	    -16.38070376	    -31.80919031	      0.71748673	     -2.38186338	     16.81100984	     21.79098010	      1.02318079	     -6.02886282
      4.56000000	    -18.49827034	     -1.34172495	     -3.72101751	     -1.28086891	     -0.01166041	     -0.34989780	      8.11061487	      4.11756630	      0.54664258	    -12.62998198	      7.63831932	     -7.40000012	     -5.06453335	     43.34350201	     -7.29787677	    -16.96863090	    -30.18926669	      0.70636442	     -1.52394979	     17.10511240	     21.65912830	      0.88914465	     -5.83205280
      4.56500000	    -18.42159187	     -1.16047196	     -3.92603444	     -1.27462231	     -0.01197144	     -0.35011687	      7.56905500	      3.86896108	      0.46279225	    -12.53366182	      7.60036966	     -7.06722459	     -4.84212976	     43.34692640	     -7.27311508	    -17.52334947	    -28.54751069	      0.74626065	     -0.74170949	     17.47682038	     21.46655680	      0.74685455	     -5.53934187
      4.57000000	    -18.40267706	     -0.99903604	     -4.09282867	     -1.26834177	     -0.01243937	     -0.35036798	      7.09182120	      3.64081380	      0.39982902	    -12.45139993	      7.56874463	     -6.77174093	     -4.65733417	     43.43085661	     -7.24761836	    -18.06663123	    -26.98558949	      0.72223023	      0.03649799	     17.79020426	     21.34130762	      0.60255249	     -5.34998135
      4.57500000	    -18.29770862	     -0.81487921	     -4.30471111	     -1.26210218	     -0.01290658	     -0.35061096	      6.57567173	      3.38268249	      0.37183235	    -12.45557092	      7.57220741	     -6.48289767	     -4.37638296	     43.38704774	     -7.20095082	    -18.53172524	    -25.42134167	      0.71716936	      0.71770770	     18.21993036	     21.11482465	      0.45482918	     -5.06560540
